<svg viewBox="0 0 40.82 40.82" xmlns="http://www.w3.org/2000/svg"><title>icons</title><g data-name="Layer 2" id="Layer_2"><path d="M25.79,35.66h.75V21.77H34v9.5a7.76,7.76,0,0,1-2.48,5.92c-1.65,1.52-3.72,2-6.22,2s-4.52-.43-6.18-2a7.75,7.75,0,0,1-2.48-5.92V22.61l.18.48ZM36.45,12V10.87a9,9,0,0,0-3.17-7.11,11.69,11.69,0,0,0-8-2.76,11.58,11.58,0,0,0-7.83,2.79,8.88,8.88,0,0,0-3.23,7v7.53l-.16-.49L5.1,5.18v0H4.37V35.66H6.73V9.49l-.28-1,7.81,11V30a8.89,8.89,0,0,0,3.21,7.05,11.62,11.62,0,0,0,7.86,2.76,11.75,11.75,0,0,0,7.89-2.76A8.87,8.87,0,0,0,36.45,30V21H26.54V5.15H24.15V31.49l.27.86L16.68,21.48V9.59a7.64,7.64,0,0,1,2.45-5.9c1.63-1.52,3.71-2,6.21-2s4.62.5,6.25,2a7.71,7.71,0,0,1,2.45,6V12Z"></path></g></svg>