<svg xml:space="preserve" style="enable-background:new 0 0 236 58;" viewBox="0 0 236 58" y="0px" x="0px" xmlns:xlink="http://www.w3.org/1999/xlink" xmlns="http://www.w3.org/2000/svg" id="Layer_1" version="1.1">
<g>
	<g>
		<path d="M61.1,49.7v3.2h3.8v0.8h-3.8v3.8h-0.9v-8.6h5.3v0.8H61.1z"></path>
		<path d="M70,57.4v-8.6h0.9v8.6H70z"></path>
		<path d="M81.8,57.4l-4.5-6.9v6.9h-0.9v-8.6h0.9l4.5,6.8v-6.8h0.9v8.6H81.8z"></path>
		<path d="M88.2,57.4v-8.6h5.3v0.8h-4.4v3h3.8v0.8h-3.8v3.1h4.4v0.8H88.2z"></path>
		<path d="M114.1,57.4v-8.6h5.3v0.8H115v3h3.8v0.8H115v3.1h4.4v0.8H114.1z"></path>
		<path d="M131.1,57.4h-0.9l-1.9-6.9l-1.9,6.9h-0.9l-2.2-8.6h1l1.7,6.9l1.9-6.9h0.8l1.9,6.9l1.7-6.9h1L131.1,57.4z"></path>
		<path d="M137.5,57.4v-8.6h5.3v0.8h-4.4v3h3.8v0.8h-3.8v3.1h4.4v0.8H137.5z"></path>
		<path d="M147.7,57.4v-8.6h0.9v7.7h4.4v0.8H147.7z"></path>
		<path d="M161.3,57.4l-1.9-3.8h-2.1v3.8h-0.9v-8.6h3.3c1.5,0,2.5,0.9,2.5,2.4c0,1.3-0.8,2.1-1.9,2.3l2,3.9H161.3z M159.6,49.7h-2.3
			v3.1h2.3c1,0,1.7-0.5,1.7-1.6C161.3,50.2,160.6,49.7,159.6,49.7z"></path>
		<path d="M169.4,53.9v3.5h-0.9v-3.5l-2.6-5h1l2,4.1l2-4.1h1L169.4,53.9z"></path>
		<path d="M107.5,48.8v5.8c0,1.3-0.6,2-1.8,2c-1.1,0-1.7-0.6-1.7-1.8H103c0,1.6,1.1,2.6,2.7,2.6v0c0,0,0,0,0,0c0,0,0,0,0,0
			c0,0,0,0,0,0c0,0,0,0,0,0v0c1.6,0,2.7-1,2.7-2.7v-6H107.5z"></path>
	</g>
	<g>
		<path d="M91,32.7h-2.6l-2.4-8.4H73.7l-2.5,8.4h-1.1l9.6-31.9h1.9L91,32.7z M74,23.3h11.5L80,4.3l-0.1-0.8L74,23.3z"></path>
	</g>
	<g>
		<path d="M44.3,32.7h-2.6l-2.4-8.4H27.1l-2.5,8.4h-1.1L33,0.8h1.9L44.3,32.7z M27.4,23.3h11.5L33.2,3.8L27.4,23.3z"></path>
	</g>
	<g>
		<path d="M57.4,32.7h-8.7V0.9l0.3,0h8.4c2.6,0,4.9,0.8,6.6,2.4c1.8,1.6,2.7,3.6,2.7,6.1v14.8c0,2.5-0.9,4.5-2.7,6.1
			C62.3,31.9,60.1,32.7,57.4,32.7z M51.3,31.7h6.6c1.9-0.1,3.3-0.6,4.4-1.7c1.3-1.3,2-2.9,2-4.8V8.4c0-1.9-0.7-3.5-2-4.8
			c-1.1-1.1-2.4-1.6-4.4-1.7l-6.6,0V31.7z"></path>
	</g>
	<g>
		<path d="M115.4,33.1c-2.6,0-4.9-0.8-6.7-2.3c-1.8-1.6-2.7-3.6-2.7-6V8.9c0-2.4,0.9-4.4,2.8-6c1.8-1.6,4.1-2.4,6.6-2.4
			c2.7,0,4.9,0.8,6.7,2.3c1.8,1.6,2.7,3.6,2.7,6.1v1.2h-2.5V7.9c0-2-0.7-3.6-1.9-4.8c-1.2-1.1-2.7-1.6-5-1.6c-2.2,0-3.8,0.5-4.9,1.6
			c-1.3,1.2-1.9,2.8-1.9,4.7v18c0,1.9,0.7,3.4,2,4.6c1.2,1.1,2.7,1.6,4.9,1.6c2.2,0,3.8-0.5,5-1.6c1.3-1.2,2-2.8,2-4.6V18h-6.8l0-1
			h9.3v7.7c0,2.4-0.9,4.5-2.8,6C120.3,32.3,118,33.1,115.4,33.1z"></path>
	</g>
	<g>
		<path d="M148.4,32.7h-2.5V16.7h-12.5v16.1h-2.5V0.9h2.5v14.7h12.5V0.9h2.5V32.7z"></path>
	</g>
	<g>
		<path d="M175.7,32.7L188,2.2l0.3-0.3h-11.7v-1H191l-12.3,30.5l-0.3,0.3h12.9l-0.3,1L175.7,32.7z"></path>
	</g>
	<g>
		<path d="M218.7,32.7V0.9h2.5v30.8H234v1H218.7z"></path>
	</g>
	<g>
		<path d="M3,32.7H2V0.8h1l15.3,26.5l0.2,0.7V0.9l0.6,0l0.4,0v31.8h-1l-0.1-0.1L3.3,6.3L3,5.4V32.7z"></path>
	</g>
	<g>
		<path d="M173.3,32.7h-2.6l-2.4-8.4H156l-2.5,8.4h-1.1L162,0.8h1.9L173.3,32.7z M156.3,23.3h11.5l-5.5-19l-0.1-0.8L156.3,23.3z"></path>
	</g>
	<g>
		<path d="M214.3,32.7h-2.6l-2.4-8.4h-12.2l-2.5,8.4h-1.1L203,0.8h1.9L214.3,32.7z M197.4,23.3h11.5l-5.5-19l-0.1-0.8L197.4,23.3z"></path>
	</g>
</g>
</svg>
